<svg width="805" height="154" viewBox="0 0 805 154" fill="none" xmlns="http://www.w3.org/2000/svg">
<path d="M223.155 29.3065H259.521L305.417 123.831H269.669L261.722 106.508H218.298L210.882 123.831H176.371L223.155 29.3065ZM226.236 86.9251H254.654L240.179 54.3257L226.236 86.9251Z" fill="#242323"/>
<path d="M319.004 123.831V29.3065H352.366V103.36H415.296V123.831H319.004Z" fill="#242323"/>
<path d="M440.275 123.831V48.4934H403.031V29.3065H510.794V48.4934H473.551V123.831H440.275Z" fill="#242323"/>
<path d="M525.443 123.831V29.3065H624.207V48.6865H558.719V65.3724H618.558V84.2986H558.719V104.509H626.322V123.821H525.443V123.831Z" fill="#242323"/>
<path d="M646.184 123.831V29.3065H705.666C720.729 29.3065 732.201 31.8364 740.09 36.9059C747.979 41.9754 751.919 49.3045 751.919 58.8835C751.919 68.9356 748.037 76.6508 740.264 82.0197C732.5 87.3885 721.319 90.073 706.728 90.073H679.633V123.831H646.184ZM679.633 71.0117H701.697C707.694 71.0117 712.126 70.0846 714.984 68.221C717.833 66.3574 719.262 63.4798 719.262 59.5884C719.262 55.8224 717.775 53.0125 714.801 51.1488C711.826 49.2852 707.346 48.3582 701.34 48.3582H679.633V71.0117Z" fill="#242323"/>
<path d="M763.93 47.8077V33.1013H758.648V29.3547H773.944V33.1013H768.662V47.8077H763.93Z" fill="#242323"/>
<path d="M776.012 47.8077V29.3644H782.51L784.944 38.3446C785.156 39.1364 785.359 39.909 785.533 40.6525C785.707 41.396 785.861 42.1299 785.996 42.8348C786.151 42.0816 786.334 41.2994 786.537 40.4786C786.74 39.6579 786.971 38.7695 787.223 37.8329L789.511 29.3644H796V47.8077H791.693V39.6289C791.693 39.0495 791.713 38.2481 791.742 37.2052C791.771 36.1623 791.819 34.965 791.877 33.6034L788.333 47.8077H783.65L780.183 33.6034C780.241 35.2353 780.289 36.7127 780.318 38.0163C780.347 39.3199 780.367 40.3435 780.367 41.0773V47.798H776.012V47.8077Z" fill="#242323"/>
<path d="M86.3361 99.6713L72.6919 124.14L58.6035 101.129L72.8561 75.5791L86.3361 99.6713Z" fill="#242323"/>
<path d="M135.825 99.063L113.683 138.48H80.8228L103.496 100.898C103.496 100.898 73.1172 51.5737 72.8564 49.3045C71.8425 51.5834 41.8214 100.096 41.8214 100.685C41.8214 101.149 47.1613 108.487 49.8361 112.137L49.8457 112.147L65.1605 137.62L64.6873 138.47H33.1115L9 99.4588L72.8661 0L135.825 99.063Z" fill="#242323"/>
</svg>
