<svg width="805" height="218" viewBox="0 0 805 218" fill="none" xmlns="http://www.w3.org/2000/svg">
<g clip-path="url(#clip0_33_1046)">
<path d="M35.2578 191.741H55.5038V194.912H39.0107V217.703H35.2578V191.741Z" fill="black"/>
<path d="M66.7627 217.603V191.741H77.8239C87.305 191.741 89.4777 195.903 89.4777 199.866C89.4777 204.028 86.5149 208.091 77.7252 208.091H70.4169V217.603H66.7627ZM70.4169 194.813V204.92H77.6264C83.157 204.92 85.626 202.839 85.626 199.767C85.626 196.893 83.5521 194.813 77.9227 194.813H70.4169Z" fill="black"/>
<path d="M106.563 214.135C106.859 214.333 107.254 214.532 107.847 214.532C109.032 214.532 110.118 213.243 111.204 211.163L97.3779 191.741H101.822L113.081 207.793L121.476 191.741H125.327L114.661 211.757C112.686 215.523 110.711 217.703 107.649 217.703C106.266 217.703 105.081 217.009 104.686 216.712L106.563 214.135Z" fill="black"/>
<path d="M133.92 212.649L136.685 210.766C138.957 213.343 142.018 214.829 146.66 214.829C151.302 214.829 154.265 212.847 154.265 209.974C154.265 207.496 151.499 205.911 146.956 205.911H141.92V202.74H146.66C150.215 202.74 153.178 201.055 153.178 198.578C153.178 195.605 149.722 194.416 145.969 194.416C141.821 194.416 139.154 196.2 137.475 198.182L134.71 196.398C136.784 193.822 140.438 191.344 146.463 191.344C152.487 191.344 156.931 193.921 156.931 198.578C156.931 201.055 155.055 202.938 152.487 204.127C156.141 204.92 157.919 207.496 157.919 209.974C157.919 215.027 152.882 218 146.66 218C140.636 218 136.093 215.82 133.92 212.649Z" fill="black"/>
<path d="M170.856 217.603V191.741H174.609V211.757L191.893 191.741H195.053V217.603H191.3V197.587L174.017 217.603H170.856Z" fill="black"/>
<path d="M229.817 206.01H212.83V217.603H209.077V191.741H212.83V202.938H229.817V191.741H233.57V217.603H229.817V206.01Z" fill="black"/>
<path d="M271.889 213.343C269.716 216.117 265.469 217.901 260.828 217.901C251.84 217.901 246.112 212.649 246.112 204.623C246.112 197.191 251.643 191.344 260.531 191.344C265.667 191.344 269.519 193.326 271.494 195.605L269.124 197.686C266.951 195.704 264.383 194.515 260.63 194.515C254.013 194.515 249.964 198.677 249.964 204.623C249.964 210.568 254.408 214.631 261.025 214.631C264.976 214.631 267.741 213.144 269.716 211.163L271.889 213.343Z" fill="black"/>
<path d="M287.493 201.353H294.9C302.604 201.353 306.357 204.226 306.357 209.28C306.357 214.829 301.912 217.603 294.505 217.603H283.74V191.741H287.493V201.353ZM287.493 204.523V214.532H294.703C299.74 214.532 302.604 212.847 302.604 209.28C302.604 206.109 299.838 204.523 294.9 204.523H287.493Z" fill="black"/>
<path d="M318.701 191.741H322.454V204.226L336.873 191.741H341.713L328.281 203.433L342.7 217.603H337.861L325.417 205.613L322.355 208.289V217.603H318.603V191.741H318.701Z" fill="black"/>
<path d="M362.551 191.642H365.514L378.057 217.604H374.205L371.045 211.064H357.119L353.959 217.604H350.206L362.551 191.642ZM358.304 208.091H369.464L363.835 196.299L358.304 208.091Z" fill="black"/>
<path d="M409.463 191.741H429.709V194.912H413.117V217.703H409.364V191.741H409.463Z" fill="black"/>
<path d="M452.325 191.344C460.325 191.344 466.745 196.894 466.745 204.623C466.745 212.352 460.325 217.901 452.325 217.901C444.326 217.901 437.808 212.352 437.808 204.623C437.808 196.894 444.128 191.344 452.325 191.344ZM452.325 214.73C458.35 214.73 462.893 210.568 462.893 204.722C462.893 198.875 458.054 194.614 452.325 194.614C446.597 194.614 441.659 198.776 441.659 204.722C441.659 210.667 446.499 214.73 452.325 214.73Z" fill="black"/>
<path d="M503.582 213.343C501.41 216.117 497.163 217.901 492.521 217.901C483.534 217.901 477.806 212.649 477.806 204.623C477.806 197.191 483.336 191.344 492.225 191.344C497.36 191.344 501.212 193.326 503.187 195.605L500.817 197.686C498.644 195.704 496.076 194.515 492.324 194.515C485.707 194.515 481.657 198.677 481.657 204.623C481.657 210.568 486.102 214.631 492.719 214.631C496.669 214.631 499.434 213.144 501.41 211.163L503.582 213.343Z" fill="black"/>
<path d="M512.569 191.741H536.075V194.912H526.1V217.703H522.347V194.912H512.471V191.741H512.569Z" fill="black"/>
<path d="M547.333 217.603V191.741H551.086V211.757L568.369 191.741H571.529V217.603H567.777V197.587L550.493 217.603H547.333Z" fill="black"/>
<path d="M606.392 206.01H589.405V217.603H585.652V191.741H589.405V202.938H606.392V191.741H610.145V217.603H606.392V206.01Z" fill="black"/>
<path d="M644.909 206.01H627.922V217.603H624.169V191.741H627.922V202.938H644.909V191.741H648.662V217.603H644.909V206.01Z" fill="black"/>
<path d="M662.784 191.741H666.537V217.603H662.784V191.741Z" fill="black"/>
<path d="M704.857 213.343C702.684 216.117 698.437 217.901 693.795 217.901C684.808 217.901 679.08 212.649 679.08 204.623C679.08 197.191 684.611 191.344 693.499 191.344C698.635 191.344 702.486 193.326 704.462 195.605L702.091 197.686C699.919 195.704 697.351 194.515 693.598 194.515C686.981 194.515 682.932 198.677 682.932 204.623C682.932 210.568 687.376 214.631 693.993 214.631C697.943 214.631 700.709 213.144 702.684 211.163L704.857 213.343Z" fill="black"/>
<path d="M713.943 191.741H737.448V194.912H727.473V217.703H723.72V194.912H713.844V191.741H713.943Z" fill="black"/>
<path d="M752.36 201.353H759.767C767.471 201.353 771.224 204.226 771.224 209.28C771.224 214.829 766.779 217.603 759.372 217.603H748.607V191.741H752.36V201.353ZM752.36 204.523V214.532H759.57C764.607 214.532 767.471 212.847 767.471 209.28C767.471 206.109 764.705 204.523 759.767 204.523H752.36Z" fill="black"/>
<path d="M83.0579 18.6291H58.4664V92.0555C58.4664 96.3164 57.3801 99.3882 55.3061 101.469C53.2321 103.55 50.5656 104.541 47.3065 104.541C44.0474 104.541 41.2821 103.55 39.1093 101.469C37.0353 99.3882 35.949 96.3164 35.949 92.0555V18.6291H11.3575C7.50583 18.6291 4.64176 17.8364 2.7653 16.35C0.888848 14.7646 0 12.7828 0 10.2064C0 7.63003 0.987609 5.54912 2.96283 3.96366C4.93804 2.4773 7.70335 1.68457 11.4563 1.68457H83.0579C86.9096 1.68457 89.8724 2.4773 91.7489 4.06275C93.6253 5.64821 94.6129 7.63003 94.6129 10.2064C94.6129 12.7828 93.6253 14.7646 91.7489 16.35C89.7737 17.8364 86.9096 18.6291 83.0579 18.6291Z" fill="black"/>
<path d="M186.46 102.856H152.486C147.548 102.856 144.092 101.866 142.018 99.8837C139.944 97.9019 138.857 94.731 138.857 90.371V14.3682C138.857 9.90915 139.944 6.73824 142.117 4.75642C144.289 2.7746 147.746 1.78369 152.585 1.78369H188.633C193.966 1.78369 198.509 2.08096 202.459 2.67551C206.311 3.27006 209.867 4.45915 212.928 6.14369C215.595 7.53096 217.866 9.41369 219.94 11.5937C221.915 13.7737 223.495 16.1519 224.582 18.8273C225.668 21.5028 226.162 24.2773 226.162 27.2501C226.162 37.3573 220.631 44.7891 209.471 49.4464C224.088 53.7073 231.396 61.9319 231.396 74.1201C231.396 79.7682 229.816 84.8219 226.656 89.38C223.496 93.9382 219.15 97.2082 213.718 99.3882C210.36 100.676 206.41 101.568 202.064 102.064C197.521 102.559 192.386 102.856 186.46 102.856ZM161.375 17.1428V43.3028H182.016C187.645 43.3028 191.991 42.8073 195.052 41.8164C198.114 40.8255 200.484 39.0419 202.064 36.2673C203.348 34.3846 203.941 32.2046 203.941 29.8264C203.941 24.6737 201.966 21.3046 197.916 19.6201C193.966 17.9355 187.843 17.1428 179.646 17.1428H161.375ZM184.88 57.9682H161.474V87.4973H185.67C200.879 87.4973 208.484 82.5428 208.484 72.5346C208.484 67.3819 206.509 63.7155 202.558 61.4364C198.608 59.1573 192.682 57.9682 184.88 57.9682Z" fill="black"/>
<path d="M282.752 92.0555V12.3864C282.752 8.22455 283.74 5.15273 285.912 3.07182C287.986 0.990909 290.653 0 293.912 0C297.171 0 300.035 0.990909 302.109 3.07182C304.183 5.15273 305.269 8.22455 305.269 12.3864V92.0555C305.269 96.2173 304.183 99.3882 302.109 101.469C300.035 103.55 297.27 104.541 293.912 104.541C290.554 104.541 287.986 103.451 285.912 101.37C283.838 99.3882 282.752 96.2173 282.752 92.0555Z" fill="black"/>
<path d="M383.686 12.4855V86.11H429.413C433.067 86.11 435.832 86.9027 437.807 88.4882C439.782 90.0736 440.77 92.1545 440.77 94.5327C440.77 96.9109 439.782 98.9918 437.906 100.577C436.03 102.163 433.166 102.856 429.511 102.856H375.094C370.156 102.856 366.699 101.865 364.527 99.8836C362.354 97.9018 361.268 94.7309 361.268 90.2718V12.3864C361.268 8.22455 362.255 5.15273 364.329 3.07182C366.403 0.990909 369.07 0 372.428 0C375.785 0 378.551 0.990909 380.625 3.07182C382.699 5.15273 383.686 8.22455 383.686 12.4855Z" fill="black"/>
<path d="M487.483 92.0555V12.3864C487.483 8.22455 488.471 5.15273 490.644 3.07182C492.718 0.990909 495.384 0 498.643 0C501.902 0 504.767 0.990909 506.841 3.07182C508.915 5.15273 510.001 8.22455 510.001 12.3864V92.0555C510.001 96.2173 508.915 99.3882 506.841 101.469C504.767 103.55 502.001 104.541 498.643 104.541C495.285 104.541 492.718 103.451 490.644 101.37C488.57 99.3882 487.483 96.2173 487.483 92.0555Z" fill="black"/>
<path d="M650.834 72.5346C650.834 78.6782 649.057 84.1282 645.6 88.9837C642.144 93.8391 637.107 97.7037 630.391 100.478C623.675 103.253 615.774 104.64 606.59 104.64C595.627 104.64 586.541 102.757 579.43 98.9919C574.394 96.3164 570.246 92.65 567.085 88.0919C563.925 83.5337 562.345 79.1737 562.345 74.9128C562.345 72.4355 563.332 70.2555 565.209 68.5709C567.085 66.7873 569.554 65.8955 572.418 65.8955C574.789 65.8955 576.764 66.5891 578.443 67.9764C580.122 69.3637 581.504 71.4446 582.689 74.12C584.072 77.2909 585.652 80.0655 587.232 82.1464C588.911 84.3264 591.183 86.11 594.146 87.4973C597.109 88.8846 601.059 89.5782 605.898 89.5782C612.614 89.5782 618.046 88.1909 622.194 85.3173C626.342 82.4437 628.416 78.9755 628.416 74.7146C628.416 71.3455 627.329 68.67 625.058 66.5891C622.786 64.5082 619.922 62.9228 616.367 61.8328C612.811 60.7428 608.071 59.5537 602.047 58.3646C594.047 56.68 587.331 54.6982 581.998 52.4191C576.566 50.14 572.32 47.0682 569.159 43.1046C565.999 39.1409 564.419 34.2855 564.419 28.4391C564.419 22.5928 566.098 17.9355 569.455 13.5755C572.813 9.21548 577.653 5.94548 583.973 3.5673C590.294 1.28821 597.701 0.0991211 606.293 0.0991211C613.108 0.0991211 619.033 0.891849 623.971 2.37821C628.91 3.96367 633.058 5.94548 636.415 8.52185C639.674 11.0982 642.144 13.7737 643.625 16.5482C645.106 19.3228 645.896 22.0973 645.896 24.7728C645.896 27.25 644.909 29.43 643.032 31.3128C641.156 33.2946 638.786 34.2855 635.922 34.2855C633.354 34.2855 631.379 33.6909 629.996 32.5018C628.613 31.3128 627.231 29.43 625.65 26.7546C623.675 22.89 621.206 19.9173 618.342 17.8364C615.478 15.6564 610.935 14.6655 604.713 14.6655C598.886 14.6655 594.244 15.8546 590.59 18.1337C587.035 20.4128 585.257 23.2864 585.257 26.5564C585.257 28.5382 585.85 30.3218 587.035 31.8082C588.22 33.2946 589.899 34.5828 592.072 35.5737C594.244 36.6637 596.318 37.4564 598.491 38.0509C600.664 38.6455 604.219 39.5373 609.256 40.6273C615.577 41.9155 621.206 43.4019 626.342 45.0864C631.379 46.6719 635.724 48.6537 639.279 50.9328C642.835 53.2119 645.6 56.1846 647.674 59.6528C649.847 63.1209 650.834 67.3818 650.834 72.5346Z" fill="black"/>
<path d="M750.089 0C761.644 0 771.52 2.08091 779.816 6.34182C788.112 10.6027 794.334 16.6473 798.58 24.4755C802.827 32.3036 805 41.5191 805 52.1218C805 59.95 803.815 67.0845 801.543 73.4264C799.173 79.8673 795.716 85.3173 791.074 90.0736C786.433 94.7309 780.705 98.3973 773.89 100.875C767.076 103.352 759.372 104.64 750.583 104.64C741.793 104.64 734.089 103.352 727.176 100.775C720.263 98.1991 714.535 94.6318 709.992 89.9745C705.35 85.3173 701.893 79.7682 699.523 73.2282C697.153 66.6882 695.968 59.6527 695.968 52.0227C695.968 44.3927 697.153 37.1591 699.622 30.6191C702.091 24.1782 705.646 18.6291 710.288 14.0709C714.93 9.51273 720.658 6.04455 727.275 3.66636C733.991 1.18909 741.497 0 750.089 0ZM782.087 52.0227C782.087 44.5909 780.803 38.2491 778.137 32.7991C775.47 27.3491 771.717 23.2864 766.878 20.5118C762.039 17.7373 756.409 16.35 750.089 16.35C745.546 16.35 741.398 17.1427 737.645 18.6291C733.892 20.1155 730.534 22.3945 727.769 25.3673C725.003 28.34 722.831 32.1055 721.251 36.6636C719.67 41.2218 718.88 46.3745 718.88 52.1218C718.88 57.8691 719.67 63.0218 721.251 67.6791C722.831 72.3364 725.102 76.2009 727.966 79.2727C730.83 82.3445 734.188 84.6236 737.941 86.11C741.694 87.5964 745.842 88.3891 750.385 88.3891C756.113 88.3891 761.446 87.1009 766.286 84.4255C771.125 81.8491 774.976 77.7864 777.841 72.2373C780.606 66.7873 782.087 60.0491 782.087 52.0227Z" fill="black"/>
</g>
<defs>
<clipPath id="clip0_33_1046">
<rect width="805" height="218" fill="white"/>
</clipPath>
</defs>
</svg>
